<svg width="25" height="25" viewBox="0 0 25 25" fill="none" xmlns="http://www.w3.org/2000/svg">
<path d="M20.3125 5.72925L19.667 16.1721C19.502 18.8401 19.4196 20.1741 18.7508 21.1333C18.4201 21.6075 17.9945 22.0077 17.5007 22.3084C16.5022 22.9167 15.1656 22.9167 12.4924 22.9167C9.81575 22.9167 8.4774 22.9167 7.47818 22.3073C6.98417 22.006 6.55833 21.6051 6.22779 21.1301C5.55925 20.1695 5.47859 18.8335 5.3173 16.1617L4.6875 5.72925" stroke="#EA5455" stroke-width="1.125" stroke-linecap="round"/>
<path d="M3.125 5.72909H21.875M16.7247 5.72909L16.0136 4.26214C15.5412 3.28769 15.305 2.80046 14.8976 2.4966C14.8073 2.42919 14.7116 2.36923 14.6115 2.31731C14.1603 2.08325 13.6189 2.08325 12.5359 2.08325C11.4258 2.08325 10.8708 2.08325 10.4122 2.32713C10.3105 2.38118 10.2135 2.44356 10.1222 2.51364C9.71004 2.82981 9.47982 3.33487 9.01939 4.34498L8.38846 5.72909" stroke="#EA5455" stroke-width="1.125" stroke-linecap="round"/>
<path d="M9.89551 17.1875V10.9375" stroke="#EA5455" stroke-width="1.125" stroke-linecap="round"/>
<path d="M15.1045 17.1875V10.9375" stroke="#EA5455" stroke-width="1.125" stroke-linecap="round"/>
</svg>
